%
M48
M72
T01C0.02362
T02C0.03150
T03C0.03200
T04C0.03937
T05C0.04000
T06C0.07480
%
T01
X36800Y34867
X84300Y34867
X104300Y27367
X151800Y54867
X164300Y52367
X184300Y79867
X164300Y99867
X136800Y99867
X114300Y92367
X119300Y137367
X126800Y137367
X76800Y159867
X64300Y172367
X39300Y152367
X46800Y117367
X26800Y82367
T02
X36879Y176067
X32154Y179217
X36879Y182367
X32154Y185516
X36879Y188666
X184300Y42741
X184300Y34867
X184300Y26993
T03
X16800Y12367
X11800Y37367
X11800Y47367
X56800Y12367
X66800Y12367
X66800Y22367
X66800Y32367
X66800Y42367
X66800Y52367
X66800Y62367
X66800Y72367
X66800Y82367
X66800Y92367
X66800Y102367
X66800Y112367
X66800Y122367
X66800Y132367
X66800Y142367
X96800Y142367
X96800Y132367
X96800Y122367
X96800Y112367
X96800Y102367
X96800Y92367
X96800Y82367
X96800Y72367
X96800Y62367
X96800Y52367
X96800Y42367
X96800Y32367
X96800Y22367
X96800Y12367
X124300Y29867
X131800Y39867
X129300Y72367
X109300Y72367
X146800Y107367
X166800Y107367
X126800Y154867
X136800Y167367
X126800Y177367
X111800Y192367
X106800Y184867
X101800Y192367
X126800Y197367
X146800Y197367
X166800Y197367
X166800Y177367
X176800Y167367
X186800Y182367
X186800Y192367
X146800Y177367
X106800Y154867
X171800Y39867
X164300Y29867
T04
X184300Y19119
X184300Y50615
T05
X46800Y47367
X46800Y57367
X46800Y67367
X6800Y72367
X6800Y82367
X6800Y92367
X6800Y102367
X6800Y112367
X6800Y122367
X6800Y132367
X6800Y142367
X46800Y192367
X56800Y192367
X66800Y192367
X76800Y192367
X86800Y192367
X191800Y142367
X191800Y132367
X191800Y122367
X191800Y112367
X191800Y102367
X191800Y92367
X191800Y82367
X191800Y72367
X166800Y14867
X156800Y14867
X146800Y14867
X134300Y14867
X124300Y14867
X114300Y14867
T06
X16800Y167997
X16800Y196737
M30
